PathFileType	4	(X/Y/Z)	Patient4_TMGait_0pt4_03_left_40.trc.trc
DataRate	CameraRate	NumFrames	NumMarkers	Units	OrigDataRate	OrigDataStartFrame	OrigNumFrames
74.866310160428	74.866310160428	4	33	mm	74.866310160428	18	       141
Frame#	Time	Sacral			L.Shoulder			Chest			R.Shoulder			Neck			R.ASIS			L.ASIS			R.Thigh.Superior			R.Thigh.Lateral			R.Thigh.Inferior			R.Patella			L.Thigh.Superior			L.Thigh.Lateral			L.Thigh.Inferior			L.Patella			L.Shank.Superior			L.Shank.Lateral			L.Shank.Inferior			R.Shank.Superior			R.Shank.Lateral			R.Shank.Inferior			R.Heel			R.Midfoot.Superior			R.Midfoot.Lateral			R.Toe			L.Heel			L.Midfoot.Lateral			L.Midfoot.Superior			L.Toe			L.Elbow			L.Wrist			R.Elbow			R.Wrist			
		X1	Y1	Z1	X2	Y2	Z2	X3	Y3	Z3	X4	Y4	Z4	X5	Y5	Z5	X6	Y6	Z6	X7	Y7	Z7	X8	Y8	Z8	X9	Y9	Z9	X10	Y10	Z10	X11	Y11	Z11	X12	Y12	Z12	X13	Y13	Z13	X14	Y14	Z14	X15	Y15	Z15	X16	Y16	Z16	X17	Y17	Z17	X18	Y18	Z18	X19	Y19	Z19	X20	Y20	Z20	X21	Y21	Z21	X22	Y22	Z22	X23	Y23	Z23	X24	Y24	Z24	X25	Y25	Z25	X26	Y26	Z26	X27	Y27	Z27	X28	Y28	Z28	X29	Y29	Z29	X30	Y30	Z30	X31	Y31	Z31	X32	Y32	Z32	X33	Y33	Z33	

18	53.197071428571	886.871582691337	1008.472340749490	545.915910264699	1053.856846946090	1431.235419268909	346.552770975783	1176.365292167023	1359.390503973394	491.581419571207	1122.713541246927	1435.080888766503	675.684787282654	1063.466279436733	1494.769880892231	503.401863021489	1124.692156064946	938.673586949954	634.030780265287	1080.700222166180	965.268601971082	362.470376906312	1136.364403967544	730.939175591431	601.154378686407	1050.080441174017	630.744457015018	673.834230969782	1108.347933991315	571.254509907113	586.953999814554	1097.522289637821	485.791043848027	594.718349228530	1157.341728390735	779.102292217285	387.176184773686	1109.958849263176	653.311456442653	306.243302760525	1213.038889628940	593.339394406279	365.999017633509	1240.762065450691	532.816013029857	361.082062182808	1228.148398079676	462.681909205308	347.658307869009	1171.664320445374	330.714913019693	291.427882620163	1265.870755795866	236.243596752579	343.277493034751	1064.161080734324	397.670254607884	605.183858222763	989.026962272982	299.596732425624	672.214020049198	1018.320329354504	202.358887425765	607.144962957233	873.695408765476	42.707796935343	584.239924116986	1044.437030967246	96.755759394445	615.466002468952	958.165016602248	36.676661824217	657.839568108769	1165.653750711750	46.480237661047	642.266067961169	1197.391274412941	49.273099247861	376.954622936477	1271.230615453657	60.967011755259	297.359354447532	1333.970464188079	145.685077691040	319.835259110235	1469.931870318289	130.096193029073	293.321854690017	927.497432080592	1094.319021711093	264.749909086474	903.955448907908	837.389207943217	246.115190144515	1237.115103552349	1116.305567024105	792.585094426484	1458.561601080688	1196.535195995126	708.097256020990	
19	53.210428571429	888.659009821000	1007.906649453742	543.999907833367	1054.046046530417	1430.810570164143	344.479257294579	1177.214002430579	1359.128892563901	489.021960031995	1124.057387890789	1434.741941459163	673.227456837334	1064.136154206284	1494.271209324064	501.288146261574	1126.462804475345	938.203253426389	632.175788234302	1082.523508038478	964.387076662491	360.539796345565	1135.975938428858	729.839507349441	600.022724907677	1048.441893545637	630.371036357197	672.785149471163	1106.304245436593	570.203980736183	586.256640798567	1094.542011167800	484.914894655450	593.979020772758	1159.305074442934	778.068113325220	385.645456736297	1110.596286819251	651.387082208390	306.102198489382	1214.020987150191	591.747977675586	364.988162834060	1241.044197167572	530.404268445356	360.614060337910	1227.406096918356	459.756188603852	347.869983994786	1168.521738751645	328.600638878068	292.478782405170	1261.046970679222	232.795834777150	344.580070406153	1060.697050564344	397.135224097049	604.606669508852	984.961555039296	299.681387567317	671.980913082615	1013.532975191769	202.088092080876	606.950252910889	868.308239041381	42.710092668667	584.281331772037	1039.057326543396	96.656778525082	615.479644631643	952.752742893416	36.624562075840	657.877857482303	1160.279383045328	46.263242932571	642.318888795008	1189.275930355217	47.707885184888	378.999686627524	1262.983498038462	57.877594669367	299.160032250989	1327.435325582921	141.088515061846	321.407044543016	1462.820361239928	122.673268430131	294.446253240513	925.262357971568	1094.892704864235	263.800053349194	900.447427827737	838.057843613778	245.405183476731	1243.360905734659	1117.863886470549	787.978488490112	1458.531923342960	1210.107282281290	701.353854212209	
20	53.223785714286	890.640495212353	1007.142740710229	541.787387187582	1054.320596931429	1430.217517882564	342.190380312762	1178.085473916920	1358.815977692613	486.354057351874	1125.204131247680	1434.306967804834	670.622453661310	1064.735322781705	1493.639082160363	498.981772455201	1128.442583278664	937.638304626938	630.288055158899	1084.719897563143	963.281317883973	358.570654741393	1135.885122482689	728.674540517781	598.951729196023	1046.978324700016	629.959339026041	671.666890073749	1104.516897548531	569.080718361833	585.585326162791	1091.763864869546	483.949227059785	593.214014144115	1161.436624050104	776.502659696113	384.039121032291	1111.156853769544	649.163978137357	305.861891997756	1214.764083922528	589.673887022596	364.032848865849	1240.901233646855	527.379411569550	360.134045689246	1226.110666969369	456.229497017503	348.016619335470	1164.440301260206	326.001490199271	293.608790892535	1255.146570378140	228.674516584535	345.908944836404	1057.417107480345	396.541981734346	603.988682186389	981.017087035080	299.767347839683	671.738625408178	1008.807221793255	201.787515310010	606.752616755922	862.929723775900	42.693456910373	584.332844919416	1033.683124061918	96.543551346845	615.504637985183	947.346154877932	36.559488784227	657.921945508167	1154.914078279722	45.990056457425	642.392675252325	1179.557573495386	45.882032621127	381.126069763709	1253.093095331189	54.287987987548	300.987178015738	1319.643452474857	135.593218664828	323.063371578582	1454.315207794131	113.704193948599	295.547374271212	923.696273054850	1095.075653584749	262.559844666560	898.235205444021	838.255570050044	244.391835191691	1249.295798151291	1119.298622853672	783.341858493499	1458.099879167636	1222.251200331742	694.796346598302	
21	53.237142857143	892.795721749006	1006.203926568467	539.317096126938	1054.713905721163	1429.456679598199	339.673721016920	1178.998268196727	1358.447544488609	483.576398490618	1126.176013091289	1433.787140044695	667.868490499588	1065.297827311757	1492.885323737111	496.466960023229	1130.621358964747	936.973448203864	628.345956878913	1087.220332099035	961.987205295065	356.558296151881	1136.137611217650	727.446144878164	597.900441756144	1045.757488009036	629.503227342861	670.441689064341	1103.032269295607	567.878815342184	584.879292767173	1089.257995016043	482.878063816647	592.367765130924	1163.623235619926	774.418449120583	382.342798240616	1111.548022546698	646.711920982017	305.476142587034	1215.182512814444	587.181078118580	363.129636477789	1240.272665780390	523.879448151464	359.644629053430	1224.320755518148	452.288932141332	348.056314375560	1159.724240371309	323.020373453794	294.743940678797	1248.620318285572	224.147694943901	347.212018428372	1054.366833489317	395.875955901655	603.284529587725	977.241717920956	299.854101909307	671.454288281943	1004.169366391098	201.455830977335	606.530694675049	857.559599492088	42.667436429225	584.397651675108	1028.319221619631	96.424286198723	615.536103130916	941.948207866692	36.487843838915	657.970463718512	1149.557938531713	45.661422043423	642.482352484715	1168.963756100034	43.963918941813	383.243057212075	1242.305642061379	50.485711266411	302.779092514718	1311.202377601534	129.569202212748	324.786283014012	1445.054570446977	103.758916502725	296.667655534668	922.856396301580	1094.845676588622	260.989732629663	897.316494580780	837.963155757999	243.059376780586	1254.848748509524	1120.568457518995	778.724298575326	1457.396569419994	1232.924353853560	688.447197411415	
